<svg id="Layer_1" data-name="Layer 1" xmlns="http://www.w3.org/2000/svg" xmlns:xlink="http://www.w3.org/1999/xlink" viewBox="0 0 1974.78 2005.49">
  <defs>
    <style>
      .cls-1 {
        fill: url(#linear-gradient);
      }

      .cls-2 {
        fill: url(#linear-gradient-2);
      }

      .cls-3 {
        fill: url(#linear-gradient-3);
      }
    </style>
    <linearGradient id="linear-gradient" x1="563.79" y1="445.28" x2="1537.7" y2="1384.82" gradientUnits="userSpaceOnUse">
      <stop offset="0" stop-color="#0066c1"/>
      <stop offset="1" stop-color="#36e9ff"/>
    </linearGradient>
    <linearGradient id="linear-gradient-2" x1="1342.24" y1="820.18" x2="2098.46" y2="1828.46" xlink:href="#linear-gradient"/>
    <linearGradient id="linear-gradient-3" x1="-547.89" y1="0.55" x2="792.67" y2="1008.84" xlink:href="#linear-gradient"/>
  </defs>
  <g>
    <path class="cls-1" d="M1182.18,1131.71c174.33-121.6,371.84-217.77,533.76-351.88s288.87-321,264.58-514.95c-.36-2.89-.88-5.75-1.3-8.62-67.38-121-178.23-179-305.2-195.45-84.06-10.76-168.28,14-253.41,46.15q-15.48,6.77-32.07,12.36c-59.22,23.32-118.93,48.34-179.39,66.28C1036.27,268.27,881,379,753.6,510.54,673.43,593.28,604.2,684.2,548.54,781.15c-178,310-216.16,679.53-104.67,1012.48,12,35.69,25.46,72.24,26.12,109,59.11,96.55,119.3,158.63,176,161,92.9,4.11,106.85-218.81,155.33-419.25a775.5,775.5,0,0,1,28.89-93.71c4.49-22.4,16.06-47.71,32.16-80.44C929.37,1334.13,1051.35,1223,1182.18,1131.71Z" transform="translate(-73.61 -58.26)"/>
    <path class="cls-2" d="M1317.53,1631.63c50.8,203.58,63.56,436.17,158.2,432.06,124.86-5.33,266.21-298.84,376-613.87,92.91-265.72,163.16-546.9,182.33-683,20.61-148,18.28-268.13-2-364.84q-5.22-25-12.19-47.88a478.2,478.2,0,0,0-40.56-97.83c.42,2.87.94,5.73,1.3,8.62,24.29,194-102.67,380.83-264.58,515s-359.43,230.28-533.76,351.88c-130.83,91.25-252.81,202.42-319.79,338.58-16.1,32.73-27.67,58-32.16,80.44C951.19,1232.65,1221.89,1249.66,1317.53,1631.63Z" transform="translate(-73.61 -58.26)"/>
    <path class="cls-3" d="M548.54,781.15C604.2,684.2,673.43,593.28,753.6,510.54,881,379,1036.27,268.27,1209.15,185.6c-48.89,14.5-98.26,24.4-148.28,24.4-211.93,0-443.3-184.48-650-143.14C360.06,77,312.46,94.67,270.07,121A402.64,402.64,0,0,0,228,151.48C108.08,252.54,42.76,443.06,88,766.81c17.73,128.86,81.88,387.55,167.22,640.46,63.14,186.67,138,370.06,214.74,495.37-.66-36.77-14.16-73.32-26.12-109C332.38,1460.68,370.58,1091.16,548.54,781.15Z" transform="translate(-73.61 -58.26)"/>
  </g>
</svg>
